<svg xmlns="http://www.w3.org/2000/svg" version="1.1" xmlns:xlink="http://www.w3.org/1999/xlink" xmlns:svgjs="http://svgjs.dev/svgjs" width="1000" height="1125" viewBox="0 0 1000 1125"><g transform="matrix(1,0,0,1,0,0)"><svg viewBox="0 0 320 360" data-background-color="#ffffff" preserveAspectRatio="xMidYMid meet" height="1125" width="1000" xmlns="http://www.w3.org/2000/svg" xmlns:xlink="http://www.w3.org/1999/xlink"><g id="tight-bounds" transform="matrix(1,0,0,1,0,0)"><svg viewBox="0 0 320 360" height="360" width="320"><g><svg></svg></g><g><svg viewBox="0 0 320 360" height="360" width="320"><g><path d="M297.491 100.645c-12.426-21.51-112.674-79.355-137.491-79.355-24.817 0-125.028 57.845-137.491 79.355-11.591 20.02-11.591 138.726 0 158.746 12.463 21.474 112.674 79.319 137.491 79.319 24.817 0 125.064-57.845 137.491-79.355 11.591-20.02 11.591-138.69 0-158.71zM309.481 93.705c-14.461-24.998-119.469-86.295-149.481-86.295-30.012 0-135.02 61.297-149.481 86.295-14.025 24.199-14.025 148.391 0 172.59 14.461 24.998 119.469 86.295 149.481 86.295 30.012 0 135.02-61.297 149.481-86.259 14.025-24.235 14.025-148.427 0-172.626zM300.906 261.353c-12.753 22.055-115.472 81.317-140.906 81.318-25.434 0-128.153-59.298-140.906-81.354-11.881-20.529-11.881-142.178 0-162.707 12.753-22.019 115.472-81.281 140.906-81.281 25.434 0 128.153 59.298 140.906 81.318 11.881 20.529 11.881 142.178 0 162.706z" fill="#000000" fill-rule="nonzero" stroke="none" stroke-width="1" stroke-linecap="butt" stroke-linejoin="miter" stroke-miterlimit="10" stroke-dasharray="" stroke-dashoffset="0" font-family="none" font-weight="none" font-size="none" text-anchor="none" style="mix-blend-mode: normal" data-fill-palette-color="tertiary"></path></g><g transform="matrix(1,0,0,1,48.000000000000014,112.22997172478794)"><svg viewBox="0 0 223.99999999999997 135.5400565504241" height="135.5400565504241" width="223.99999999999997"><g><svg viewBox="0 0 223.99999999999997 135.5400565504241" height="135.5400565504241" width="223.99999999999997"><g><svg viewBox="0 0 224.00000000000003 135.54005655042414" height="135.5400565504241" width="223.99999999999997"><g><svg viewBox="0 0 224.00000000000003 135.54005655042414" height="135.54005655042414" width="224.00000000000003"><g id="textblocktransform"><svg viewBox="0 0 224.00000000000003 135.54005655042414" height="135.54005655042414" width="224.00000000000003" id="textblock"><g><svg viewBox="0 0 224.00000000000003 135.54005655042414" height="135.54005655042414" width="224.00000000000003"><g transform="matrix(1,0,0,1,0,0)"><svg width="224.00000000000003" viewBox="0.25 -31.5 53.05 32.1" height="135.54005655042414" data-palette-color="#ffffff"><path d="M19.3-30.6L19.3-31.5 26.1-31.5 26.1-30.6 24.25-30.6Q23.55-30.6 23.3-29.9L23.3-29.9 15.65-11.45 15.65-1.6Q15.65-0.9 16.35-0.9L16.35-0.9 19.95-0.9 19.95 0 7.25 0 7.25-0.9 10.85-0.9Q11.55-0.9 11.55-1.6L11.55-1.6 11.55-11.5 3.05-29.9Q2.7-30.6 2.1-30.6L2.1-30.6 0.25-30.6 0.25-31.5 9.8-31.5 9.8-30.6 7.3-30.6 14.95-14 21.8-30.6 19.3-30.6ZM31.15-1.6L31.15-1.6 31.15-30Q31.15-30.6 30.45-30.6L30.45-30.6 28.1-30.6 28.1-31.5 38.3-31.5 38.3-30.6 35.95-30.6Q35.25-30.6 35.25-30L35.25-30 35.25-1.6Q35.25-0.9 35.95-0.9L35.95-0.9 38.3-0.9 38.3 0 28.1 0 28.1-0.9 30.45-0.9Q31.15-0.9 31.15-1.6ZM46.95-8.75L46.95-8.75 48.1-4.15Q48.85-1.05 50.5-1.05L50.5-1.05Q51.35-1.05 51.82-1.68 52.3-2.3 52.3-3.18 52.3-4.05 52.15-4.8L52.15-4.8 53.1-4.95Q53.3-4.2 53.3-3.3L53.3-3.3Q53.3-1.5 52.22-0.45 51.15 0.6 49.45 0.6L49.45 0.6Q45.25 0.6 43.95-4.75L43.95-4.75 42.8-9.35Q41.95-12.6 40.45-13.88 38.95-15.15 36.2-15.15L36.2-15.15 36.2-16.25 48-30.6 45.5-30.6 45.5-31.5 52.3-31.5 52.3-30.6 50.95-30.6Q50.15-30.6 49.55-29.9L49.55-29.9 38.35-16.35Q42.2-16.3 44.15-14.25 46.1-12.2 46.95-8.75Z" opacity="1" transform="matrix(1,0,0,1,0,0)" fill="#ffffff" class="wordmark-text-0" data-fill-palette-color="quaternary" id="text-0"></path></svg></g></svg></g></svg></g></svg></g></svg></g></svg></g></svg></g></svg></g><defs></defs></svg><rect width="320" height="360" fill="none" stroke="none" visibility="hidden"></rect></g></svg></g></svg>